<?xml version="1.0" encoding="UTF-8"?> <svg xmlns="http://www.w3.org/2000/svg" width="417" height="234" style="enable-background:new 0 0 417 234" xml:space="preserve"><path d="M0 1h415.85v233.92H0z"></path><path style="fill:#fed925" d="M150.08 148.74v.99h-4.52v-5.86h4.39v.99h-3.17v1.46h2.49v.94h-2.49v1.49h3.3zM156.3 149.73h-1.4l-2.05-3.44-.51-.99h-.01l.04 1.04v3.39h-1.1v-5.86h1.39l2.05 3.44.51.99h.02l-.04-1.04v-3.39h1.1v5.86zM162.99 146.63v3.1h-.9l-.03-.7c-.36.53-.93.79-1.73.79-.54 0-1.01-.12-1.42-.35-.41-.24-.73-.58-.95-1.03-.23-.45-.34-.99-.34-1.62 0-.62.12-1.16.35-1.62.23-.46.57-.8.99-1.05.43-.24.93-.36 1.5-.36.63 0 1.15.12 1.55.35.4.23.71.59.95 1.09l-1.13.49c-.09-.3-.25-.53-.48-.69-.23-.16-.52-.24-.85-.24-.51 0-.91.17-1.19.52-.28.35-.43.85-.43 1.49 0 .67.14 1.17.42 1.52.28.34.69.51 1.23.51.41 0 .75-.1 1.01-.3.26-.2.39-.49.39-.87v-.13h-1.71v-.91h2.77zM167.75 148.3h-2.25l-.48 1.43h-1.25l2.14-5.86h1.46l2.14 5.86h-1.27l-.49-1.43zm-.3-.91-.55-1.65-.27-.89h-.02l-.25.87-.57 1.67h1.66zM175.33 146.63v3.1h-.9l-.03-.7c-.36.53-.93.79-1.73.79-.54 0-1.01-.12-1.42-.35-.41-.24-.73-.58-.95-1.03-.23-.45-.34-.99-.34-1.62 0-.62.12-1.16.35-1.62.23-.46.57-.8.99-1.05.43-.24.93-.36 1.5-.36.63 0 1.15.12 1.55.35.4.23.71.59.95 1.09l-1.13.49c-.09-.3-.25-.53-.48-.69-.23-.16-.52-.24-.85-.24-.51 0-.91.17-1.19.52-.28.35-.43.85-.43 1.49 0 .67.14 1.17.42 1.52.28.34.69.51 1.23.51.41 0 .75-.1 1.01-.3.26-.2.39-.49.39-.87v-.13h-1.71v-.91h2.77zM181.28 148.74v.99h-4.52v-5.86h4.39v.99h-3.17v1.46h2.49v.94h-2.49v1.49h3.3zM183.58 148.56c.14.13.21.3.21.52 0 .22-.07.39-.21.52-.14.13-.33.2-.56.2-.24 0-.42-.06-.56-.19-.14-.13-.21-.3-.21-.53 0-.22.07-.4.21-.53.14-.13.33-.19.56-.19.23.01.42.07.56.2zM192.43 148.74v.99h-4.52v-5.86h4.39v.99h-3.17v1.46h2.49v.94h-2.49v1.49h3.3zM198.02 144.63c.5.51.75 1.23.75 2.17s-.25 1.66-.75 2.17-1.21.76-2.13.76h-2.26v-5.86h2.26c.91 0 1.63.25 2.13.76zm-.94 3.62c.28-.33.42-.82.42-1.45s-.14-1.12-.42-1.45c-.28-.33-.7-.5-1.26-.5h-.98v3.91h.98c.56-.01.98-.18 1.26-.51zM205.01 147.42c0 .79-.21 1.39-.63 1.79-.42.4-1.05.6-1.87.6-.82 0-1.45-.2-1.87-.6-.42-.4-.63-1-.63-1.79v-3.55h1.23v3.5c0 .49.1.86.32 1.09.21.24.53.36.96.36.43 0 .75-.12.96-.36.21-.24.31-.6.31-1.09v-3.5h1.23v3.55zM210.63 149.39c-.44.29-.96.43-1.57.43-.57 0-1.07-.12-1.5-.36-.43-.24-.75-.59-.98-1.04-.23-.45-.34-.99-.34-1.61 0-.62.11-1.16.34-1.61s.55-.8.98-1.04c.42-.24.92-.36 1.49-.36.61 0 1.13.13 1.55.38.42.25.71.63.87 1.14l-1.11.47c-.09-.35-.24-.6-.44-.75-.2-.15-.47-.23-.82-.23-.5 0-.89.17-1.17.52-.28.35-.42.85-.42 1.49 0 .65.14 1.14.41 1.49.27.35.66.52 1.15.52.72 0 1.17-.35 1.35-1.04l1.13.34c-.17.54-.48.97-.92 1.26zM216.01 148.3h-2.25l-.48 1.43h-1.25l2.14-5.86h1.46l2.14 5.86h-1.27l-.49-1.43zm-.3-.91-.55-1.65-.27-.89h-.02l-.25.87-.57 1.67h1.66zM222.57 144.85h-1.96v4.87h-1.23v-4.87h-1.97v-.99h5.16v.99zM228.19 148.74v.99h-4.52v-5.86h4.39v.99h-3.17v1.46h2.49v.94h-2.49v1.49h3.3zM230.48 148.56c.14.13.21.3.21.52 0 .22-.07.39-.21.52-.14.13-.33.2-.56.2-.24 0-.42-.06-.56-.19-.14-.13-.21-.3-.21-.53 0-.22.07-.4.21-.53.14-.13.33-.19.56-.19.23.01.42.07.56.2zM236.04 149.73h-1.23v-5.86h1.23v5.86zM242.69 149.73h-1.4l-2.05-3.44-.51-.99h-.01l.04 1.04v3.39h-1.1v-5.86h1.39l2.05 3.44.51.99h.02l-.04-1.04v-3.39h1.1v5.86zM247.85 144.05c.39.18.73.47 1.03.86l-.84.83c-.15-.32-.36-.56-.61-.71-.25-.16-.58-.24-.97-.24-.36 0-.63.07-.82.2s-.29.31-.29.53c0 .2.1.36.29.48.2.12.55.22 1.06.31.53.1.96.23 1.27.37.31.15.54.33.69.55.14.22.22.5.22.83 0 .36-.1.67-.31.94-.2.26-.49.47-.85.61s-.78.21-1.25.21c-.65 0-1.17-.09-1.58-.27-.41-.18-.74-.45-1-.82l.73-.87c.22.36.47.61.75.75s.64.21 1.06.21c.38 0 .67-.06.87-.18.2-.12.3-.29.3-.51 0-.16-.09-.29-.28-.4-.19-.11-.52-.21-1-.3-.55-.11-.99-.25-1.32-.4-.33-.15-.57-.34-.71-.57-.15-.22-.22-.5-.22-.83 0-.35.09-.66.28-.95.19-.28.47-.5.83-.66.36-.16.79-.24 1.28-.24.53 0 1 .09 1.39.27zM254.15 144.36c.38.33.57.79.57 1.39 0 .58-.19 1.03-.57 1.36-.38.33-.91.49-1.59.49h-1.23v2.13h-1.23v-5.86h2.46c.69 0 1.22.16 1.59.49zm-.94 2.06c.18-.15.27-.38.27-.68 0-.3-.09-.53-.27-.67-.18-.15-.46-.22-.83-.22h-1.05v1.8h1.05c.38 0 .66-.08.83-.23zM257.15 149.73h-1.23v-5.86h1.23v5.86zM261.08 147.48h-1.1v2.25h-1.21v-5.86h2.58c.67 0 1.19.16 1.57.48.38.32.56.76.56 1.34 0 .42-.1.77-.31 1.06-.21.28-.5.49-.89.61l1.54 2.38h-1.38l-1.36-2.26zm-1.1-.93h1.22c.36 0 .62-.07.79-.21.17-.14.25-.35.25-.64 0-.29-.08-.5-.25-.64-.17-.14-.43-.21-.79-.21h-1.22v1.7zM269.42 148.74v.99h-4.52v-5.86h4.39v.99h-3.17v1.46h2.49v.94h-2.49v1.49h3.3zM271.71 148.56c.14.13.21.3.21.52 0 .22-.07.39-.21.52-.14.13-.33.2-.56.2-.24 0-.42-.06-.56-.19-.14-.13-.21-.3-.21-.53 0-.22.07-.4.21-.53.14-.13.33-.19.56-.19.23.01.42.07.56.2zM114.72 86.9h-14.08v59.59h31.96v3.24H97.19V83.66h17.53v3.24zM284.84 146.49h31.99V86.9h-14.21v-3.24h17.67v66.07h-35.45v-3.24z"></path><path style="fill:#fff" d="m133.31 104.29-9.06 24.8h5.3l2.07-6.05h9.51l2.07 6.05h5.37l-9.06-24.8h-6.2zm-.52 14.92 3.57-10.82 3.61 10.82h-7.18zM153.01 104.29h5.19v24.8h-5.19zM197.28 104.29h-21.84v4.18h8.35v20.63h5.18v-20.63h8.31zM205.36 104.29l-9.06 24.8h5.3l2.07-6.05h9.51l2.07 6.05h5.37l-9.06-24.8h-6.2zm-.53 14.92 3.57-10.82 3.61 10.82h-7.18zM230.23 104.29h-5.18v24.81h18.26v-4.17h-13.08zM269.77 104.29h-6.01l-10.19 11.75v-11.75h-5.18v24.81h5.18v-7.3l3.55-4.02 7.01 11.32h5.94l-9.23-14.66zM286.27 115l-4.62-1.05c-1.28-.3-2.18-.68-2.71-1.15-.53-.46-.79-1.03-.79-1.71 0-.55.16-1.05.47-1.5.31-.45.81-.81 1.5-1.09s1.56-.41 2.61-.41c1.6 0 3.01.31 4.23.92 1.22.61 2.34 1.57 3.36 2.87l2.89-3.34c-1.2-1.53-2.66-2.68-4.36-3.46-1.7-.78-3.68-1.17-5.94-1.17-2.13 0-3.95.34-5.47 1.03-1.52.69-2.67 1.62-3.48 2.8-.8 1.18-1.2 2.51-1.2 3.98 0 1.23.27 2.29.81 3.18.54.89 1.33 1.62 2.37 2.18s2.29 1.02 3.74 1.37l5.04 1.13c1.18.25 1.99.61 2.42 1.07.44.46.66 1.02.66 1.67 0 .63-.18 1.16-.54 1.6-.36.44-.9.78-1.62 1.01-.71.24-1.58.36-2.61.36-1.2 0-2.35-.18-3.44-.54-1.09-.36-2.06-.86-2.91-1.48-.85-.63-1.57-1.34-2.14-2.14l-2.93 3.49c.75.95 1.69 1.79 2.82 2.52s2.41 1.3 3.85 1.71c1.44.41 3.03.62 4.75.62 1.98 0 3.73-.31 5.26-.92 1.53-.61 2.72-1.5 3.57-2.67.85-1.16 1.28-2.56 1.28-4.19 0-1.73-.53-3.14-1.6-4.23-1.06-1.08-2.82-1.9-5.27-2.46z"></path></svg> 